<svg xmlns="http://www.w3.org/2000/svg" xmlns:xlink="http://www.w3.org/1999/xlink" viewBox="0 0 100 125" version="1.1" x="0px" y="0px"><title>hummidity outline</title><desc>Created with Sketch.</desc><g stroke="none" stroke-width="1" fill="none" fill-rule="evenodd"><path d="M80.6509434,63.1509434 C80.6509434,80.1650076 66.586065,94.5 50.5642504,94.5 C34.4322735,94.5 19.5,79.9562379 19.5,63.1509434 C19.5,55.7503155 23.3223326,47.522555 31.4302453,34.8008449 C32.2898941,33.4520141 33.1863538,32.0669649 34.3538688,30.2786817 C43.3624154,16.4802871 45.5821575,12.7742616 47.2509736,7.87208312 C48.3399536,4.673184 52.8812218,4.72209432 53.9010517,7.94370574 C55.4449623,12.8208721 57.5669745,16.4919077 66.3842312,30.450336 C67.5704195,32.3281678 68.4788819,33.7802311 69.3490202,35.1951772 C77.0068187,47.6476477 80.6509434,55.8236565 80.6509434,63.1509434 Z M58.5,78 C60.4329966,78 62,76.4329966 62,74.5 C62,72.5670034 60.4329966,71 58.5,71 C56.5670034,71 55,72.5670034 55,74.5 C55,76.4329966 56.5670034,78 58.5,78 Z M41.5,58 C43.4329966,58 45,56.4329966 45,54.5 C45,52.5670034 43.4329966,51 41.5,51 C39.5670034,51 38,52.5670034 38,54.5 C38,56.4329966 39.5670034,58 41.5,58 Z M57.2664237,51.936433 L38.643176,73.6005176 C37.6795626,74.7214716 37.8140669,76.4054143 38.9435997,77.361709 C40.0731325,78.3180037 41.7699629,78.184521 42.7335763,77.063567 L61.356824,55.3994824 C62.3204374,54.2785284 62.1859331,52.5945857 61.0564003,51.638291 C59.9268675,50.6819963 58.2300371,50.815479 57.2664237,51.936433 Z" fill="white" fill-rule="nonzero"/></g></svg>